<svg xmlns="http://www.w3.org/2000/svg" xmlns:xlink="http://www.w3.org/1999/xlink" width="1000" zoomAndPan="magnify" viewBox="0 0 750 472.499986" height="630" preserveAspectRatio="xMidYMid meet" version="1.0"><defs><g/><clipPath id="5537b91759"><rect x="0" width="530" y="0" height="353"/></clipPath><clipPath id="c4a6c7a0e1"><rect x="0" width="179" y="0" height="175"/></clipPath><clipPath id="9ce38a284a"><rect x="0" width="179" y="0" height="175"/></clipPath></defs><g transform="matrix(1, 0, 0, 1, 108, 61)"><g clip-path="url(#5537b91759)"><g fill="#000000" fill-opacity="1"><g transform="translate(0.562663, 119.650567)"><g><path d="M 8 0 L 8 -68.390625 L 31.59375 -68.390625 L 31.59375 -61.1875 L 31.859375 -61.1875 C 37.992188 -67.320312 44.523438 -70.390625 51.453125 -70.390625 C 56.429688 -70.390625 61.097656 -69.363281 65.453125 -67.3125 C 69.804688 -65.269531 73.097656 -62.117188 75.328125 -57.859375 C 82.253906 -66.210938 89.804688 -70.390625 97.984375 -70.390625 C 105.273438 -70.390625 111.539062 -68.34375 116.78125 -64.25 C 122.019531 -60.164062 124.640625 -53.769531 124.640625 -45.0625 L 124.640625 0 L 101.046875 0 L 101.046875 -38.65625 C 101.046875 -42.300781 100.046875 -45.34375 98.046875 -47.78125 C 96.046875 -50.226562 93.046875 -51.453125 89.046875 -51.453125 C 85.585938 -51.453125 82.945312 -50.40625 81.125 -48.3125 C 79.300781 -46.226562 78.300781 -43.722656 78.125 -40.796875 L 78.125 0 L 54.53125 0 L 54.53125 -38.65625 C 54.53125 -42.300781 53.53125 -45.34375 51.53125 -47.78125 C 49.53125 -50.226562 46.53125 -51.453125 42.53125 -51.453125 C 38.882812 -51.453125 36.148438 -50.316406 34.328125 -48.046875 C 32.503906 -45.785156 31.59375 -43.101562 31.59375 -40 L 31.59375 0 Z M 8 0 "/></g></g></g><g fill="#000000" fill-opacity="1"><g transform="translate(120.513199, 119.650567)"><g><path d="M 77.1875 -30.921875 L 27.59375 -30.921875 C 27.59375 -26.128906 29.144531 -22.578125 32.25 -20.265625 C 35.363281 -17.953125 38.742188 -16.796875 42.390625 -16.796875 C 46.210938 -16.796875 49.234375 -17.304688 51.453125 -18.328125 C 53.679688 -19.347656 56.21875 -21.367188 59.0625 -24.390625 L 76.125 -15.859375 C 69.007812 -3.953125 57.1875 2 40.65625 2 C 30.351562 2 21.507812 -1.53125 14.125 -8.59375 C 6.75 -15.664062 3.0625 -24.175781 3.0625 -34.125 C 3.0625 -44.082031 6.75 -52.613281 14.125 -59.71875 C 21.507812 -66.832031 30.351562 -70.390625 40.65625 -70.390625 C 51.5 -70.390625 60.320312 -67.253906 67.125 -60.984375 C 73.925781 -54.722656 77.328125 -45.769531 77.328125 -34.125 C 77.328125 -32.53125 77.28125 -31.460938 77.1875 -30.921875 Z M 28.265625 -44 L 54.265625 -44 C 53.722656 -47.550781 52.316406 -50.28125 50.046875 -52.1875 C 47.785156 -54.101562 44.878906 -55.0625 41.328125 -55.0625 C 37.421875 -55.0625 34.3125 -54.035156 32 -51.984375 C 29.6875 -49.941406 28.441406 -47.28125 28.265625 -44 Z M 28.265625 -44 "/></g></g></g><g fill="#000000" fill-opacity="1"><g transform="translate(189.549996, 119.650567)"><g><path d="M 8 0 L 8 -68.390625 L 31.59375 -68.390625 L 31.59375 -61.1875 L 31.859375 -61.1875 C 37.992188 -67.320312 44.523438 -70.390625 51.453125 -70.390625 C 56.429688 -70.390625 61.097656 -69.363281 65.453125 -67.3125 C 69.804688 -65.269531 73.097656 -62.117188 75.328125 -57.859375 C 82.253906 -66.210938 89.804688 -70.390625 97.984375 -70.390625 C 105.273438 -70.390625 111.539062 -68.34375 116.78125 -64.25 C 122.019531 -60.164062 124.640625 -53.769531 124.640625 -45.0625 L 124.640625 0 L 101.046875 0 L 101.046875 -38.65625 C 101.046875 -42.300781 100.046875 -45.34375 98.046875 -47.78125 C 96.046875 -50.226562 93.046875 -51.453125 89.046875 -51.453125 C 85.585938 -51.453125 82.945312 -50.40625 81.125 -48.3125 C 79.300781 -46.226562 78.300781 -43.722656 78.125 -40.796875 L 78.125 0 L 54.53125 0 L 54.53125 -38.65625 C 54.53125 -42.300781 53.53125 -45.34375 51.53125 -47.78125 C 49.53125 -50.226562 46.53125 -51.453125 42.53125 -51.453125 C 38.882812 -51.453125 36.148438 -50.316406 34.328125 -48.046875 C 32.503906 -45.785156 31.59375 -43.101562 31.59375 -40 L 31.59375 0 Z M 8 0 "/></g></g></g><g fill="#000000" fill-opacity="1"><g transform="translate(309.500532, 119.650567)"><g><path d="M 78.390625 -59.859375 C 84.785156 -52.835938 87.984375 -44.257812 87.984375 -34.125 C 87.984375 -24 84.785156 -15.445312 78.390625 -8.46875 C 71.992188 -1.488281 63.859375 2 53.984375 2 C 44.921875 2 37.457031 -1.242188 31.59375 -7.734375 L 31.328125 -7.734375 L 31.328125 0 L 8 0 L 8 -114.65625 L 31.59375 -114.65625 L 31.59375 -61.859375 C 37.457031 -67.546875 44.921875 -70.390625 53.984375 -70.390625 C 63.859375 -70.390625 71.992188 -66.878906 78.390625 -59.859375 Z M 58.515625 -22.59375 C 61.453125 -25.570312 62.921875 -29.414062 62.921875 -34.125 C 62.921875 -38.832031 61.382812 -42.695312 58.3125 -45.71875 C 55.25 -48.75 51.453125 -50.265625 46.921875 -50.265625 C 42.484375 -50.265625 38.726562 -48.75 35.65625 -45.71875 C 32.59375 -42.695312 31.0625 -38.832031 31.0625 -34.125 C 31.0625 -29.507812 32.550781 -25.6875 35.53125 -22.65625 C 38.507812 -19.632812 42.304688 -18.125 46.921875 -18.125 C 51.722656 -18.125 55.585938 -19.613281 58.515625 -22.59375 Z M 58.515625 -22.59375 "/></g></g></g><g fill="#000000" fill-opacity="1"><g transform="translate(389.199901, 119.650567)"><g><path d="M 77.1875 -30.921875 L 27.59375 -30.921875 C 27.59375 -26.128906 29.144531 -22.578125 32.25 -20.265625 C 35.363281 -17.953125 38.742188 -16.796875 42.390625 -16.796875 C 46.210938 -16.796875 49.234375 -17.304688 51.453125 -18.328125 C 53.679688 -19.347656 56.21875 -21.367188 59.0625 -24.390625 L 76.125 -15.859375 C 69.007812 -3.953125 57.1875 2 40.65625 2 C 30.351562 2 21.507812 -1.53125 14.125 -8.59375 C 6.75 -15.664062 3.0625 -24.175781 3.0625 -34.125 C 3.0625 -44.082031 6.75 -52.613281 14.125 -59.71875 C 21.507812 -66.832031 30.351562 -70.390625 40.65625 -70.390625 C 51.5 -70.390625 60.320312 -67.253906 67.125 -60.984375 C 73.925781 -54.722656 77.328125 -45.769531 77.328125 -34.125 C 77.328125 -32.53125 77.28125 -31.460938 77.1875 -30.921875 Z M 28.265625 -44 L 54.265625 -44 C 53.722656 -47.550781 52.316406 -50.28125 50.046875 -52.1875 C 47.785156 -54.101562 44.878906 -55.0625 41.328125 -55.0625 C 37.421875 -55.0625 34.3125 -54.035156 32 -51.984375 C 29.6875 -49.941406 28.441406 -47.28125 28.265625 -44 Z M 28.265625 -44 "/></g></g></g><g fill="#000000" fill-opacity="1"><g transform="translate(458.236697, 119.650567)"><g><path d="M 8 0 L 8 -68.390625 L 31.59375 -68.390625 L 31.59375 -58.53125 L 31.859375 -58.53125 C 32.035156 -58.882812 32.320312 -59.328125 32.71875 -59.859375 C 33.125 -60.390625 33.992188 -61.320312 35.328125 -62.65625 C 36.660156 -63.988281 38.082031 -65.1875 39.59375 -66.25 C 41.101562 -67.320312 43.054688 -68.28125 45.453125 -69.125 C 47.859375 -69.96875 50.304688 -70.390625 52.796875 -70.390625 C 55.367188 -70.390625 57.898438 -70.03125 60.390625 -69.3125 C 62.878906 -68.601562 64.703125 -67.894531 65.859375 -67.1875 L 67.71875 -66.125 L 57.859375 -46.125 C 54.921875 -48.613281 50.832031 -49.859375 45.59375 -49.859375 C 42.75 -49.859375 40.300781 -49.234375 38.25 -47.984375 C 36.207031 -46.742188 34.765625 -45.234375 33.921875 -43.453125 C 33.078125 -41.679688 32.476562 -40.171875 32.125 -38.921875 C 31.769531 -37.679688 31.59375 -36.707031 31.59375 -36 L 31.59375 0 Z M 8 0 "/></g></g></g><g fill="#000000" fill-opacity="1"><g transform="translate(101.263912, 305.128785)"><g><path d="M 78.390625 -59.921875 C 84.785156 -52.941406 87.984375 -44.382812 87.984375 -34.25 C 87.984375 -24.125 84.785156 -15.550781 78.390625 -8.53125 C 71.992188 -1.507812 63.859375 2 53.984375 2 C 44.921875 2 37.457031 -0.84375 31.59375 -6.53125 L 31.59375 34.65625 L 8 34.65625 L 8 -68.390625 L 31.328125 -68.390625 L 31.328125 -60.65625 L 31.59375 -60.65625 C 37.457031 -67.144531 44.921875 -70.390625 53.984375 -70.390625 C 63.859375 -70.390625 71.992188 -66.898438 78.390625 -59.921875 Z M 58.3125 -22.65625 C 61.382812 -25.6875 62.921875 -29.554688 62.921875 -34.265625 C 62.921875 -38.972656 61.453125 -42.816406 58.515625 -45.796875 C 55.585938 -48.773438 51.722656 -50.265625 46.921875 -50.265625 C 42.304688 -50.265625 38.507812 -48.75 35.53125 -45.71875 C 32.550781 -42.695312 31.0625 -38.878906 31.0625 -34.265625 C 31.0625 -29.554688 32.59375 -25.6875 35.65625 -22.65625 C 38.726562 -19.632812 42.484375 -18.125 46.921875 -18.125 C 51.453125 -18.125 55.25 -19.632812 58.3125 -22.65625 Z M 58.3125 -22.65625 "/></g></g></g><g fill="#000000" fill-opacity="1"><g transform="translate(180.963282, 305.128785)"><g><path d="M 8 0 L 8 -114.65625 L 31.59375 -114.65625 L 31.59375 0 Z M 8 0 "/></g></g></g><g fill="#000000" fill-opacity="1"><g transform="translate(209.215766, 305.128785)"><g><path d="M 30.265625 -68.390625 L 30.265625 -35.859375 C 30.265625 -29.109375 31.285156 -24.3125 33.328125 -21.46875 C 35.367188 -18.625 38.832031 -17.203125 43.71875 -17.203125 C 48.613281 -17.203125 52.082031 -18.625 54.125 -21.46875 C 56.164062 -24.3125 57.1875 -29.109375 57.1875 -35.859375 L 57.1875 -68.390625 L 80.78125 -68.390625 L 80.78125 -30.125 C 80.78125 -18.75 77.828125 -10.550781 71.921875 -5.53125 C 66.015625 -0.507812 56.613281 2 43.71875 2 C 30.832031 2 21.4375 -0.507812 15.53125 -5.53125 C 9.625 -10.550781 6.671875 -18.75 6.671875 -30.125 L 6.671875 -68.390625 Z M 30.265625 -68.390625 "/></g></g></g><g fill="#000000" fill-opacity="1"><g transform="translate(285.316526, 305.128785)"><g><path d="M 37.734375 -70.390625 C 41.640625 -70.390625 45.503906 -69.941406 49.328125 -69.046875 C 53.148438 -68.160156 55.992188 -67.273438 57.859375 -66.390625 L 60.65625 -65.0625 L 52.921875 -49.59375 C 47.585938 -52.4375 42.523438 -53.859375 37.734375 -53.859375 C 35.066406 -53.859375 33.175781 -53.566406 32.0625 -52.984375 C 30.945312 -52.410156 30.390625 -51.320312 30.390625 -49.71875 C 30.390625 -49.363281 30.429688 -49.007812 30.515625 -48.65625 C 30.609375 -48.300781 30.789062 -47.96875 31.0625 -47.65625 C 31.332031 -47.34375 31.578125 -47.078125 31.796875 -46.859375 C 32.015625 -46.640625 32.390625 -46.394531 32.921875 -46.125 C 33.460938 -45.851562 33.882812 -45.648438 34.1875 -45.515625 C 34.5 -45.390625 35.007812 -45.191406 35.71875 -44.921875 C 36.4375 -44.660156 36.972656 -44.460938 37.328125 -44.328125 C 37.679688 -44.191406 38.28125 -43.988281 39.125 -43.71875 C 39.96875 -43.457031 40.613281 -43.28125 41.0625 -43.1875 C 43.8125 -42.394531 46.207031 -41.507812 48.25 -40.53125 C 50.300781 -39.550781 52.457031 -38.21875 54.71875 -36.53125 C 56.988281 -34.84375 58.742188 -32.707031 59.984375 -30.125 C 61.234375 -27.550781 61.859375 -24.617188 61.859375 -21.328125 C 61.859375 -5.773438 51.0625 2 29.46875 2 C 24.570312 2 19.925781 1.242188 15.53125 -0.265625 C 11.132812 -1.773438 7.957031 -3.285156 6 -4.796875 L 3.0625 -7.203125 L 12.671875 -23.328125 C 13.378906 -22.703125 14.3125 -21.96875 15.46875 -21.125 C 16.625 -20.28125 18.710938 -19.125 21.734375 -17.65625 C 24.753906 -16.195312 27.375 -15.46875 29.59375 -15.46875 C 34.476562 -15.46875 36.921875 -17.109375 36.921875 -20.390625 C 36.921875 -21.898438 36.296875 -23.078125 35.046875 -23.921875 C 33.804688 -24.773438 31.695312 -25.734375 28.71875 -26.796875 C 25.75 -27.859375 23.421875 -28.835938 21.734375 -29.734375 C 17.460938 -31.953125 14.082031 -34.457031 11.59375 -37.25 C 9.101562 -40.050781 7.859375 -43.765625 7.859375 -48.390625 C 7.859375 -55.328125 10.546875 -60.726562 15.921875 -64.59375 C 21.304688 -68.457031 28.578125 -70.390625 37.734375 -70.390625 Z M 37.734375 -70.390625 "/></g></g></g><g fill="#000000" fill-opacity="1"><g transform="translate(339.559026, 305.128785)"><g><path d="M 52.390625 -21.0625 L 32 -21.0625 L 32 -45.0625 L 8 -45.0625 L 8 -65.453125 L 32 -65.453125 L 32 -89.453125 L 52.390625 -89.453125 L 52.390625 -65.453125 L 76.390625 -65.453125 L 76.390625 -45.0625 L 52.390625 -45.0625 Z M 52.390625 -21.0625 "/></g></g></g></g></g><g transform="matrix(1, 0, 0, 1, 69, 268)"><g clip-path="url(#c4a6c7a0e1)"><path stroke-linecap="butt" transform="matrix(1.866569, 0, 0, 1.866569, 10.459507, 151.347123)" fill="none" stroke-linejoin="miter" d="M 0.000766252 4.99985 L 84.432507 4.99985 " stroke="#292929" stroke-width="10" stroke-opacity="1" stroke-miterlimit="4"/><path stroke-linecap="butt" transform="matrix(0, 1.866569, -1.866569, 0, 29.115628, 10.49911)" fill="none" stroke-linejoin="miter" d="M 0.000476954 5.000822 L 82.462946 5.000822 " stroke="#292929" stroke-width="10" stroke-opacity="1" stroke-miterlimit="4"/></g></g><g transform="matrix(1, 0, 0, 1, 502, 29)"><g clip-path="url(#9ce38a284a)"><path stroke-linecap="butt" transform="matrix(-1.866569, 0, 0, -1.866569, 168.531293, 23.652682)" fill="none" stroke-linejoin="miter" d="M 0.0000231266 4.999746 L 84.433857 4.999746 " stroke="#292929" stroke-width="10" stroke-opacity="1" stroke-miterlimit="4"/><path stroke-linecap="butt" transform="matrix(0, -1.866569, 1.866569, 0, 149.875158, 164.500697)" fill="none" stroke-linejoin="miter" d="M 0.000373425 4.99948 L 82.462843 4.99948 " stroke="#292929" stroke-width="10" stroke-opacity="1" stroke-miterlimit="4"/></g></g></svg>